#!OML:ASF F:\VICON\USERDATA\INSTALL\rory3\rory3.ASF
:FULLY-SPECIFIED
:DEGREES
149
root 1.57645 18.3119 43.0619 0.367998 -4.97255 -0.364168
lowerback 15.0868 -1.78746 1.10491
upperback -0.365957 -2.01667 1.80463
thorax -8.85163 -0.974803 1.76579
lowerneck -19.6606 -3.35066 -3.32355
upperneck 8.09928 -4.20763 4.38542
head 5.78229 -1.80328 1.49185
rclavicle 1.09332e-015 1.63003e-014
rhumerus -64.8451 0.603861 -93.5773
rradius 109.711
rwrist -12.158
rhand -11.0683 37.1658
rfingers 7.12502
rthumb 14.9547 7.7257
lclavicle 1.09332e-015 1.63003e-014
lhumerus -41.3539 -15.1562 92.88
lradius 115.888
lwrist 32.3423
lhand -26.6397 -0.546998
lfingers 7.12502
lthumb -0.0720881 29.4327
rfemur -26.5938 4.8308 25.0953
rtibia 23.7635
rfoot 10.0003 -0.304709
rtoes 12.5702
lfemur 5.54447 -1.27289 -23.9721
ltibia 68.1522
lfoot 28.2176 -20.7696
ltoes -14.712
150
root 1.57911 18.1993 43.5843 -0.250572 -5.25945 -0.583619
lowerback 15.6315 -1.76454 1.40049
upperback -0.335616 -1.92239 1.76903
thorax -9.1409 -0.941421 1.5593
lowerneck -19.2368 -3.47503 -3.35056
upperneck 8.26218 -4.38095 4.35262
head 5.77374 -1.89518 1.47067
rclavicle 1.66482e-014 8.34896e-015
rhumerus -64.1131 0.664004 -93.912
rradius 109.336
rwrist -12.7705
rhand -10.9914 36.9675
rfingers 7.12502
rthumb 15.0287 7.53299
lclavicle 1.66482e-014 8.34896e-015
lhumerus -42.317 -14.3828 92.9845
lradius 114.403
lwrist 31.6607
lhand -26.5963 -1.3799
lfingers 7.12502
lthumb -0.0301904 28.5998
rfemur -25.7592 4.67283 25.5268
rtibia 26.4301
rfoot 6.16261 2.30957
rtoes 14.3532
lfemur 4.42407 0.0683091 -22.9087
ltibia 72.329
lfoot 28.4795 -19.6971
ltoes -10.7214
151
root 1.5792 18.079 44.0564 -0.544544 -5.46319 -0.372723
lowerback 15.6786 -1.64577 1.21165
upperback 0.114655 -1.82067 1.61508
thorax -8.67579 -0.890398 1.46509
lowerneck -19.7519 -3.68107 -3.29248
upperneck 8.24565 -4.66923 4.44648
head 5.86241 -2.01861 1.45428
rclavicle 3.54334e-014 1.59028e-015
rhumerus -62.0587 0.770302 -94.3544
rradius 108.788
rwrist -13.4798
rhand -11.1187 36.68
rfingers 7.12502
rthumb 14.9061 7.23636
lclavicle 3.54334e-014 1.59028e-015
lhumerus -42.0323 -13.7948 92.7365
lradius 112.732
lwrist 31.0741
lhand -27.3524 -1.36482
lfingers 7.12502
lthumb -0.760438 28.6136
rfemur -26.0236 5.3025 25.2575
rtibia 29.7381
rfoot 1.81265 1.8345
rtoes 17.3897
lfemur 2.50959 1.42931 -22.1529
ltibia 76.6616
lfoot 28.4587 -18.2896
ltoes -6.42683
152
root 1.58997 17.943 44.6049 -1.35959 -5.24684 0.354523
lowerback 15.3016 -1.69661 0.804149
upperback 0.792091 -2.00741 1.27765
thorax -7.72529 -0.977756 1.34325
lowerneck -20.1554 -3.85341 -3.43613
upperneck 8.07471 -4.89174 4.79282
head 5.89366 -2.09899 1.55947
rclavicle -2.2413e-014 2.38542e-015
rhumerus -59.9203 1.00051 -94.8517
rradius 108.094
rwrist -14.1536
rhand -11.1389 36.4836
rfingers 7.12502
rthumb 14.8867 7.03844
lclavicle -2.2413e-014 2.38542e-015
lhumerus -41.8043 -13.0692 92.4356
lradius 110.878
lwrist 30.4621
lhand -28.0146 -1.53353
lfingers 7.12502
lthumb -1.40006 28.4416
rfemur -24.8863 4.71025 24.7206
rtibia 33.4095
rfoot -3.40855 1.3014
rtoes 14.0095
lfemur 1.97251 2.26754 -22.3582
ltibia 80.2874
lfoot 28.0726 -15.9796
ltoes -4.61712
153
root 1.57225 17.7849 45.0176 -1.3759 -5.50685 0.270112
lowerback 16.355 -1.49163 0.489322
upperback 0.563237 -1.76738 1.3422
thorax -8.55419 -0.841613 1.57948
lowerneck -19.6957 -3.95167 -3.36326
upperneck 7.99737 -5.01064 4.48347
head 5.78992 -2.18698 1.44188
rclavicle 3.97569e-015 -5.96354e-015
rhumerus -58.2955 1.11508 -95.3841
rradius 107.434
rwrist -14.7868
rhand -11.005 36.4478
rfingers 7.12502
rthumb 15.0157 7.01231
lclavicle 3.97569e-015 -5.96354e-015
lhumerus -42.2018 -12.401 92.3668
lradius 108.974
lwrist 29.8306
lhand -27.8099 -2.51072
lfingers 7.12502
lthumb -1.20235 27.4656
rfemur -25.2174 6.40468 24.9904
rtibia 37.0367
rfoot -6.96048 0.436012
rtoes 13.4368
lfemur -0.88806 3.7404 -20.9847
ltibia 84.7667
lfoot 27.6698 -14.4628
ltoes -6.23494
